<svg xmlns="http://www.w3.org/2000/svg" viewBox="0 0 480 130" width="480" height="130">
  <defs>
    <linearGradient id="gf4" x1="0%" y1="0%" x2="100%" y2="100%">
      <stop offset="0%" style="stop-color:#1B6CA8"/>
      <stop offset="100%" style="stop-color:#0D3B66"/>
    </linearGradient>
  </defs>
  <!-- 방패 + 날개 + 체크 -->
  <path d="M50 12 L85 24 L85 60 C85 82 68 98 50 104 C32 98 15 82 15 60 L15 24 Z" fill="url(#gf4)"/>
  <!-- 방패 안 날개 -->
  <path d="M35 58 Q38 42, 48 36 Q47 46, 47 50 Q50 40, 56 37 Q54 48, 48 56 Z" fill="white" opacity="0.5"/>
  <path d="M65 58 Q62 42, 52 36 Q53 46, 53 50 Q50 40, 44 37 Q46 48, 52 56 Z" fill="white" opacity="0.3"/>
  <!-- 체크마크 -->
  <polyline points="36,62 47,73 66,50" fill="none" stroke="white" stroke-width="4" stroke-linecap="round" stroke-linejoin="round"/>
  <!-- 별 아치 -->
  <circle cx="35" cy="20" r="2" fill="white" opacity="0.6"/>
  <circle cx="50" cy="17" r="2.5" fill="white" opacity="0.8"/>
  <circle cx="65" cy="20" r="2" fill="white" opacity="0.6"/>
  <!-- 텍스트 -->
  <text x="108" y="50" font-family="'Segoe UI', Arial, sans-serif" font-size="20" font-weight="400" fill="#1B6CA8" letter-spacing="5">NARAE</text>
  <text x="108" y="88" font-family="'Segoe UI', Arial, sans-serif" font-size="38" font-weight="700" fill="#0D3B66">Data</text>
  <text x="225" y="88" font-family="'Segoe UI', Arial, sans-serif" font-size="38" font-weight="700" fill="#1B6CA8">Q</text>
</svg>